Coordinates
version=1
nRows=24
nColumns=24
inDegrees=yes

Units are S.I. units (second, meters, Newtons, ...)
Angles are in degrees.

endheader
time	pelvis_tilt	pelvis_list	pelvis_rotation	pelvis_tx	pelvis_ty	pelvis_tz	hip_flexion_r	hip_adduction_r	hip_rotation_r	knee_angle_r	ankle_angle_r	subtalar_angle_r	mtp_angle_r	hip_flexion_l	hip_adduction_l	hip_rotation_l	knee_angle_l	ankle_angle_l	subtalar_angle_l	mtp_angle_l	lumbar_extension	lumbar_bending	lumbar_rotation
      5.13000000	      3.37099692	     -4.15348312	     -1.36837599	     -2.10780537	      0.94385602	      0.28643199	     -0.47812425	     10.24083090	      1.33776611	     -5.81413071	      9.89059841	      3.01638150	      0.00000000	     16.65076664	     -5.51778971	     -9.08650879	    -55.25816866	      5.93813397	    -10.70644539	      0.00000000	    -19.53599293	      3.86106894	     -2.81365527
      5.14000000	      3.19396466	     -4.04588329	     -1.36671483	     -2.09958315	      0.94379853	      0.28643576	     -0.92875383	     10.13772259	      1.48324002	     -5.66620352	     10.25161769	      2.91726806	      0.00000000	     17.50160558	     -5.28111561	     -8.87593106	    -53.33326710	      6.68122045	     -9.94609652	      0.00000000	    -19.57832997	      3.71190402	     -2.52325735
      5.15000000	      3.01784486	     -3.96090507	     -1.36700120	     -2.09130724	      0.94363134	      0.28637547	     -1.38457371	     10.05358842	      1.59825971	     -5.51231387	     10.61604219	      2.82294326	      0.00000000	     18.22864889	     -5.05342633	     -8.66943019	    -51.10610498	      7.28886624	     -9.31519591	      0.00000000	    -19.60420808	      3.59956663	     -2.24096358
      5.16000000	      2.85537745	     -3.91625693	     -1.37232225	     -2.08300289	      0.94336451	      0.28625812	     -1.84863477	     10.00884607	      1.71723225	     -5.37749335	     10.95501559	      2.71925920	      0.00000000	     18.82028509	     -4.84956876	     -8.44330762	    -48.59236789	      7.79856312	     -8.77078225	      0.00000000	    -19.64255478	      3.54061478	     -1.93407358
      5.17000000	      2.68064858	     -3.88283139	     -1.37570588	     -2.07462227	      0.94297144	      0.28607473	     -2.30728064	      9.97194704	      1.83548328	     -5.23770434	     11.34558403	      2.63278789	      0.00000000	     19.29497730	     -4.63950537	     -8.20512913	    -45.78411818	      8.09037917	     -8.35357516	      0.00000000	    -19.64357992	      3.50447890	     -1.64751647
      5.18000000	      2.51653276	     -3.88632212	     -1.38013390	     -2.06616439	      0.94246554	      0.28583292	     -2.78935592	      9.97048590	      1.94557242	     -5.08431826	     11.73397140	      2.53855475	      0.00000000	     19.63159668	     -4.45955693	     -7.96649991	    -42.70991844	      8.29465734	     -7.95627415	      0.00000000	    -19.63913011	      3.51787308	     -1.36072104
      5.19000000	      2.35993572	     -3.92563847	     -1.38397121	     -2.05760899	      0.94183853	      0.28554104	     -3.29595989	     10.00418695	      2.05355495	     -4.91483020	     12.12395595	      2.44132798	      0.00000000	     19.83552146	     -4.30595185	     -7.70893345	    -39.39142410	      8.39403679	     -7.52645975	      0.00000000	    -19.62236412	      3.58045387	     -1.07321073
      5.20000000	      2.22315879	     -4.01403210	     -1.39087612	     -2.04894865	      0.94110127	      0.28519850	     -3.84274987	     10.08508896	      2.16472674	     -4.72791200	     12.50138031	      2.34867609	      0.00000000	     19.90083668	     -4.19419277	     -7.42438137	    -35.86476797	      8.39221157	     -7.00016985	      0.00000000	    -19.61083081	      3.70346116	     -0.77449774
      5.21000000	      2.09191392	     -4.14532282	     -1.40466352	     -2.04014857	      0.94022753	      0.28481733	     -4.41947026	     10.20666336	      2.26728648	     -4.51783452	     12.87660232	      2.26934184	      0.00000000	     19.85308756	     -4.12424949	     -7.11866815	    -32.17519267	      8.29878161	     -6.32884299	      0.00000000	    -19.57527883	      3.88124144	     -0.47125866
      5.22000000	      1.98214506	     -4.31840477	     -1.43455820	     -2.03120884	      0.93924191	      0.28441581	     -5.03868734	     10.36578764	      2.37424214	     -4.29654163	     13.24460664	      2.21435618	      0.00000000	     19.68596346	     -4.09885261	     -6.78208521	    -28.37028999	      8.11505958	     -5.49497723	      0.00000000	    -19.53942042	      4.10620231	     -0.14909824
      5.23000000	      1.88639259	     -4.52267564	     -1.48219373	     -2.02212245	      0.93813692	      0.28398229	     -5.68720555	     10.54877765	      2.48867134	     -4.07578140	     13.61693457	      2.18507185	      0.00000000	     19.42452110	     -4.11048690	     -6.41018611	    -24.50795252	      7.83290462	     -4.53607326	      0.00000000	    -19.49566984	      4.37438324	      0.18606240
      5.24000000	      1.79727512	     -4.75018179	     -1.54375474	     -2.01286228	      0.93690328	      0.28355689	     -6.36859657	     10.74966555	      2.60306687	     -3.83292998	     14.02739946	      2.16753229	      0.00000000	     19.09635572	     -4.15940016	     -5.99233166	    -20.65335179	      7.43312667	     -3.52006536	      0.00000000	    -19.41332565	      4.65198748	      0.52603891
      5.25000000	      1.78565465	     -5.02487616	     -1.64409366	     -2.00353293	      0.93566701	      0.28313083	     -7.11769194	     10.98517512	      2.76551239	     -3.64810355	     14.38092354	      2.20505811	      0.00000000	     18.63721666	     -4.27740692	     -5.52788703	    -16.85844990	      7.01740086	     -2.54160706	      0.00000000	    -19.44361725	      4.98492056	      0.93518486
      5.26000000	      1.76120826	     -5.30800167	     -1.74876033	     -1.99410496	      0.93429989	      0.28269001	     -7.84242212	     11.22273029	      2.92750246	     -3.50109225	     14.77428558	      2.24182117	      0.00000000	     18.17523225	     -4.42792053	     -5.05096089	    -13.19994108	      6.53100324	     -1.66725386	      0.00000000	    -19.43671468	      5.32151554	      1.32875033
      5.27000000	      1.75321411	     -5.59917001	     -1.85764631	     -1.98462521	      0.93286374	      0.28224751	     -8.55490297	     11.46290844	      3.08757138	     -3.42326944	     15.17819699	      2.29680266	      0.00000000	     17.69881991	     -4.61522624	     -4.63169816	     -9.74733140	      6.04233852	     -0.94085884	      0.00000000	    -19.44953731	      5.65832053	      1.72281222
      5.28000000	      1.74237302	     -5.89009848	     -1.95150944	     -1.97512884	      0.93135155	      0.28173980	     -9.21352686	     11.69917154	      3.23396741	     -3.44624446	     15.60571061	      2.35890466	      0.00000000	     17.26686887	     -4.81922788	     -4.37179469	     -6.58910986	      5.58902595	     -0.34634309	      0.00000000	    -19.46476671	      6.00527056	      2.09242326
      5.29000000	      1.72333399	     -6.17396729	     -2.02289847	     -1.96562733	      0.92978364	      0.28118375	     -9.81030791	     11.93061506	      3.34525364	     -3.56573292	     16.05103177	      2.41224723	      0.00000000	     16.91910891	     -5.02026428	     -4.35137726	     -3.81031345	      5.22514302	      0.15578219	      0.00000000	    -19.47446922	      6.33995156	      2.42207607
      5.30000000	      1.74355702	     -6.40276883	     -2.08043150	     -1.95611145	      0.92826871	      0.28053355	    -10.38094174	     12.09855087	      3.41050732	     -3.81053201	     16.50736091	      2.48917168	      0.00000000	     16.60745701	     -5.14694106	     -4.61100225	     -1.45647274	      5.00313769	      0.59437285	      0.00000000	    -19.54483380	      6.61593495	      2.71615411
      5.31000000	      1.79918933	     -6.60321902	     -2.08087264	     -1.94659173	      0.92682916	      0.27976088	    -10.91256716	     12.24014274	      3.27327802	     -4.17846229	     17.03099862	      2.75144934	      0.00000000	     16.40501233	     -5.21047462	     -5.31870327	      0.32981673	      5.03393823	      1.34420015	      0.00000000	    -19.66375475	      6.86994417	      2.93436334
      5.32000000	      1.86280081	     -6.74091428	     -2.08460320	     -1.93702270	      0.92543711	      0.27894136	    -11.39849327	     12.31663153	      3.21827852	     -4.65147218	     17.51045870	      2.82960671	      0.00000000	     16.26787939	     -5.18270597	     -6.02995126	      1.61437076	      5.10323909	      1.68671134	      0.00000000	    -19.78453013	      7.03967993	      3.17550600
      5.33000000	      1.89318689	     -6.85956724	     -2.08204117	     -1.92741418	      0.92404859	      0.27806499	    -11.78736962	     12.37956030	      3.25326463	     -5.24826534	     17.97485111	      2.82426376	      0.00000000	     16.24717072	     -5.12484401	     -6.62337788	      2.36195579	      5.19558274	      1.68274381	      0.00000000	    -19.86498765	      7.20161980	      3.38059749
      5.34000000	      2.00291661	     -6.92593188	     -2.05452811	     -1.91769868	      0.92283827	      0.27711599	    -12.20150276	     12.38427368	      3.17437033	     -5.95519772	     18.39542199	      2.85045055	      0.00000000	     16.22317057	     -5.01015007	     -7.22059817	      2.55234829	      5.39603963	      1.63465831	      0.00000000	    -20.03368079	      7.29557365	      3.56845095
      5.35000000	      2.14155451	     -6.96522870	     -1.97860557	     -1.90786629	      0.92174940	      0.27607650	    -12.56180522	     12.35543210	      2.76579482	     -6.81085688	     18.81479814	      3.23417554	      0.00000000	     16.26280549	     -4.87380566	     -7.88580933	      2.19068879	      5.65662491	      1.84643570	      0.00000000	    -20.22030998	      7.36305168	      3.69630261
      5.36000000	      2.24235247	     -6.99715035	     -1.94470840	     -1.89786135	      0.92066172	      0.27507869	    -12.86792476	     12.32440465	      2.73601324	     -7.73629814	     19.07677554	      3.17812574	      0.00000000	     16.32331818	     -4.77071021	     -8.10553398	      1.47579325	      5.72309475	      1.54114368	      0.00000000	    -20.32357709	      7.40653369	      3.88367337
